<?xml version="1.0" encoding="UTF-8" standalone="no"?>
<svg
   xmlns:dc="http://purl.org/dc/elements/1.1/"
   xmlns:cc="http://creativecommons.org/ns#"
   xmlns:rdf="http://www.w3.org/1999/02/22-rdf-syntax-ns#"
   xmlns:svg="http://www.w3.org/2000/svg"
   xmlns="http://www.w3.org/2000/svg"
   xmlns:sodipodi="http://sodipodi.sourceforge.net/DTD/sodipodi-0.dtd"
   xmlns:inkscape="http://www.inkscape.org/namespaces/inkscape"
   width="24"
   height="24"
   viewBox="0 0 24 24"
   id="svg2"
   version="1.1"
   inkscape:version="0.91 r13725"
   sodipodi:docname="converter_drive.svg">
  <metadata
     id="metadata12">
    <rdf:RDF>
      <cc:Work
         rdf:about="">
        <dc:format>image/svg+xml</dc:format>
        <dc:type
           rdf:resource="http://purl.org/dc/dcmitype/StillImage" />
        <dc:title></dc:title>
      </cc:Work>
    </rdf:RDF>
  </metadata>
  <defs
     id="defs10">
    <linearGradient
       x1="32.474621"
       y1="64.329185"
       x2="129.04662"
       y2="125.05767"
       id="linearGradient-3"
       gradientTransform="scale(1.0764612,0.92896984)"
       gradientUnits="userSpaceOnUse">
      <stop
         stop-color="#1A237E"
         stop-opacity="0.2"
         offset="0%"
         id="stop12" />
      <stop
         stop-color="#1A237E"
         stop-opacity="0.02"
         offset="100%"
         id="stop14" />
    </linearGradient>
    <radialGradient
       cx="133.12869"
       cy="3.9683523"
       fx="133.12869"
       fy="3.9683523"
       r="449.73846"
       gradientTransform="scale(1.0722558,0.93261332)"
       id="radialGradient-16"
       gradientUnits="userSpaceOnUse">
      <stop
         stop-color="#FFFFFF"
         stop-opacity="0.1"
         offset="0%"
         id="stop23" />
      <stop
         stop-color="#FFFFFF"
         stop-opacity="0"
         offset="100%"
         id="stop25" />
    </radialGradient>
  </defs>
  <sodipodi:namedview
     pagecolor="#ffffff"
     bordercolor="#666666"
     borderopacity="1"
     objecttolerance="10"
     gridtolerance="10"
     guidetolerance="10"
     inkscape:pageopacity="0"
     inkscape:pageshadow="2"
     inkscape:window-width="1117"
     inkscape:window-height="701"
     id="namedview8"
     showgrid="false"
     inkscape:zoom="9.8333333"
     inkscape:cx="12"
     inkscape:cy="12"
     inkscape:window-x="0"
     inkscape:window-y="0"
     inkscape:window-maximized="0"
     inkscape:current-layer="svg2" />
  <path
     fill="none"
     d="M0 0h24v24H0V0z"
     id="path4" />
  <path
     d="M 7.1992188,4.8007812 0,12 7.1992188,19.199219 8.8808594,17.519531 3.359375,12 8.8808594,6.4804688 7.1992188,4.8007812 Z m 9.6015622,0 -1.68164,1.6796876 L 20.640625,12 19.84375,12.796875 21.068359,14.931641 24,12 16.800781,4.8007812 Z"
     id="foreground"
     inkscape:connector-curvature="0" />
  <g
     transform="matrix(0.02849412,0,0,0.02849412,10.409611,11.566732)"
     id="g4366">
    <polygon
       transform="translate(87.738658,286.76927)"
       style="fill:#4285f4;fill-rule:nonzero;stroke:none;stroke-width:1"
       points="354.12056,0 0.042915035,0 0.042915035,119.0454 287.05867,119.0454 "
       id="Shape" />
    <polygon
       transform="translate(87.738658,286.76927)"
       style="fill:url(#linearGradient-3);fill-rule:nonzero;stroke:none;stroke-width:1"
       points="69.004515,0 137.989,119.0454 0.042915035,119.0454 "
       id="polygon43" />
    <polygon
       transform="translate(87.738658,286.76927)"
       id="polygon47"
       points="69.004515,0 67.67701,2.2893346 350.20671,2.2893346 350.20671,2.2893346 354.12056,0 69.004515,0 "
       style="fill:#ffffff;fill-opacity:0.2;fill-rule:nonzero;stroke:none;stroke-width:1" />
    <polygon
       transform="translate(87.738658,286.76927)"
       id="polygon49"
       points="354.12056,0 350.20671,2.2893346 285.73116,116.75606 1.3704201,116.75606 0.042915035,119.0454 287.05867,119.0454 "
       style="fill:#1a237e;fill-opacity:0.2;fill-rule:nonzero;stroke:none;stroke-width:1" />
    <polygon
       transform="translate(87.738658,286.76927)"
       id="polygon51"
       points="69.004515,0 0.042915035,119.0454 2.6750372,119.0454 70.33202,2.2893346 "
       style="fill:#1a237e;fill-opacity:0.05;fill-rule:nonzero;stroke:none;stroke-width:1" />
    <polygon
       transform="translate(20.719679,39.521144)"
       id="polygon62"
       points="0,247.24813 67.061894,366.29353 228.8573,87.017607 141.85994,0 "
       style="fill:#0f9d58;fill-rule:nonzero;stroke:none;stroke-width:1" />
    <polygon
       transform="translate(20.719679,39.521144)"
       style="fill:#263238;fill-opacity:0.1;fill-rule:nonzero;stroke:none;stroke-width:1"
       id="polygon66"
       points="210.56977,118.58753 141.85994,0 143.11878,6.753537 207.91476,118.58753 67.084782,361.66908 2.6321221,247.24813 0,247.24813 67.061894,366.29353 " />
    <polygon
       transform="translate(20.719679,39.521144)"
       style="fill:#ffffff;fill-opacity:0.2;fill-rule:nonzero;stroke:none;stroke-width:1"
       id="polygon68"
       points="0,247.24813 2.6321221,247.24813 143.18744,2.2893346 141.85994,0 141.85994,0 " />
    <polygon
       transform="translate(162.48234,39.521144)"
       style="fill:#ffcd40;fill-rule:nonzero;stroke:none;stroke-width:1"
       points="279.37688,247.24813 137.51694,0 0.097274079,0 143.35338,247.24813 "
       id="polygon81" />
    <polygon
       transform="translate(162.48234,39.521144)"
       id="polygon85"
       points="279.37688,247.24813 137.51694,0 0.097274079,0 4.0569013,2.2893346 136.18943,2.2893346 276.74475,247.24813 "
       style="fill:#ffffff;fill-opacity:0.2;fill-rule:nonzero;stroke:none;stroke-width:1" />
    <polygon
       transform="translate(162.48234,39.521144)"
       id="polygon87"
       points="4.0569013,2.2893346 4.0569013,2.2893346 0.097274079,0 143.35338,247.24813 144.658,244.9588 "
       style="fill:#bf360c;fill-opacity:0.1;fill-rule:nonzero;stroke:none;stroke-width:1" />
    <polygon
       transform="translate(2.194689,21.20646)"
       style="fill:#0f9d58;fill-rule:nonzero;stroke:none;stroke-width:1"
       points="247.38229,105.33228 160.38493,18.314677 18.52499,265.56281 85.586884,384.60821 "
       id="polygon109" />
    <polygon
       transform="translate(135.01672,21.206467)"
       id="polygon130"
       points="27.562896,18.314677 170.819,265.56281 306.8425,265.56281 164.98256,18.314677 "
       style="fill:#ffcd40;fill-rule:nonzero;stroke:none;stroke-width:1" />
    <path
       transform="translate(20.719679,39.521144)"
       inkscape:connector-curvature="0"
       style="fill:url(#radialGradient-16);fill-rule:nonzero;stroke:none;stroke-width:1"
       id="path132"
       d="M 279.2796,0 141.85994,0 0,247.24813 l 67.061894,119.0454 287.015756,0 67.06189,-119.0454 L 279.2796,0 Z m -143.25611,247.24813 74.54628,-128.6606 74.54628,128.6606 -149.09256,0 z" />
  </g>
</svg>
