<?xml version="1.0" encoding="UTF-8" standalone="no"?>
<svg
   xmlns:dc="http://purl.org/dc/elements/1.1/"
   xmlns:cc="http://creativecommons.org/ns#"
   xmlns:rdf="http://www.w3.org/1999/02/22-rdf-syntax-ns#"
   xmlns:svg="http://www.w3.org/2000/svg"
   xmlns="http://www.w3.org/2000/svg"
   xmlns:sodipodi="http://sodipodi.sourceforge.net/DTD/sodipodi-0.dtd"
   xmlns:inkscape="http://www.inkscape.org/namespaces/inkscape"
   version="1.1"
   x="0px"
   y="0px"
   viewBox="0 0 512 512"
   enable-background="new 0 0 512 512"
   xml:space="preserve"
   id="svg3649"
   inkscape:version="0.91 r13725"
   sodipodi:docname="thoth.svg"
   width="512"
   height="512"><metadata
     id="metadata3661"><rdf:RDF><cc:Work
         rdf:about=""><dc:format>image/svg+xml</dc:format><dc:type
           rdf:resource="http://purl.org/dc/dcmitype/StillImage" /><dc:title></dc:title></cc:Work></rdf:RDF></metadata><defs
     id="defs3659" /><sodipodi:namedview
     pagecolor="#ffffff"
     bordercolor="#666666"
     borderopacity="1"
     objecttolerance="10"
     gridtolerance="10"
     guidetolerance="10"
     inkscape:pageopacity="0"
     inkscape:pageshadow="2"
     inkscape:window-width="1323"
     inkscape:window-height="792"
     id="namedview3657"
     showgrid="false"
     inkscape:zoom="0.36875"
     inkscape:cx="-64"
     inkscape:cy="320"
     inkscape:window-x="0"
     inkscape:window-y="0"
     inkscape:window-maximized="0"
     inkscape:current-layer="svg3649" /><path
     d="m 240,271.813 c 31.719,0 71.969,-12.094 98.344,-21.406 3.625,-5.656 7.281,-11.375 10.906,-17.188 -18.906,-6 -36.125,-15.219 -45.25,-25.406 21.156,0 45.938,-5.438 68.063,-11.75 5.844,-9.688 11.5,-19.188 17,-28.5 -16.844,-6 -31.813,-14.5 -40.094,-23.75 18.375,0 39.594,-4.125 59.344,-9.344 C 431.625,94 512,0 512,0 315.594,65.469 65.469,315.594 0,512 l 64,-32 c 0,0 32,-79 64,-112 23.969,-24.719 87,-5 128,-16 10.313,-2.75 27.594,-22.375 47.656,-50.188 C 278.094,297.063 252.031,285.25 240,271.813 Z"
     id="foreground"
     inkscape:connector-curvature="0"
     style="fill:#000000" /></svg>